<svg xmlns="http://www.w3.org/2000/svg" xmlns:xlink="http://www.w3.org/1999/xlink" version="1.1" width="1000" height="1000" viewBox="0 0 1000 1000" xml:space="preserve">
<desc>Created with Fabric.js 3.5.0</desc>
<defs>
</defs>
<rect x="0" y="0" width="100%" height="100%" fill="transparent"/>
<g transform="matrix(1 0 0 1 500 500)" style="" id="531540">
		
<path xml:space="preserve" font-family="Cagliostro" font-size="233" font-style="normal" font-weight="normal" style="stroke: none; stroke-width: 1; stroke-dasharray: none; stroke-linecap: butt; stroke-dashoffset: 0; stroke-linejoin: miter; stroke-miterlimit: 4; is-custom-font: none; font-file-url: none; fill: rgb(0,0,0); fill-rule: nonzero; opacity: 1; white-space: pre;" d="M-341.81-91.07L-341.81-91.07L-339.48-90.84Q-339.25-90.84-338.78-90.37Q-338.32-89.91-338.08-89.79Q-337.85-89.67-337.38-88.97Q-336.92-88.27-336.80-87.92Q-336.69-87.58-336.22-86.64L-336.22-86.64Q-331.56-78.26-308.73-34.22L-308.73-34.22Q-301.04-20.70-296.84-11.73Q-292.65-2.76-288.69 5.39Q-284.73 13.55-281.70 19.37Q-278.67 25.20-277.74 25.20Q-276.80 25.20-275.76 24.15Q-274.71 23.10-273.43 21.35Q-272.14 19.60-271.21 18.09Q-270.28 16.58-269.12 14.48Q-267.95 12.38-263.06 4.23Q-258.16-3.93-241.50-33.40Q-224.84-62.88-217.16-75.93L-217.16-75.93L-210.17-88.74Q-208.07-90.14-202.71-90.25Q-197.35-90.37-195.95-88.74L-195.95-88.74Q-194.32-83.15-193.39-70.10Q-192.46-57.05-192.11-53.44Q-191.76-49.83-186.63-1.37L-186.63-1.37Q-180.34 60.15-180.34 65.39Q-180.34 70.63-182.21 72.03Q-184.07 73.43-196.88 73.66L-196.88 73.66Q-203.88 73.66-204.34 56.65L-204.34 56.65Q-204.34 53.62-208.19 4.46Q-212.03-44.70-212.73-50.76L-212.73-50.76Q-216.69-44.24-232.42-16.86Q-248.14 10.52-252.46 17.27Q-256.77 24.03-263.52 35.57Q-270.28 47.10-274.94 53.97Q-279.60 60.85-281.46 60.85Q-283.33 60.85-286.71 55.60Q-290.08 50.36-291.95 45.93Q-293.81 41.51-305.11 19.02Q-316.41-3.46-329.23-28.39Q-342.04-53.32-343.21-55.89L-343.21-55.89Q-343.21-54.72-346.59-22.45Q-349.97 9.82-351.13 23.10Q-352.30 36.38-354.39 60.38L-354.39 60.38Q-355.09 69.23-357.31 71.21Q-359.52 73.19-365.34 73.43Q-371.17 73.66-372.33 72.96Q-373.50 72.26-373.62 69.70Q-373.73 67.14-372.92 62.24Q-372.10 57.35-371.05 45.58Q-370.00 33.82-365.11-6.37Q-360.22-46.57-359.29-55.54Q-358.35-64.51-356.72-73.48Q-355.09-82.45-354.98-85.13Q-354.86-87.81-350.90-89.44Q-346.94-91.07-341.81-91.07ZM-64.31 15.64L-64.31 15.64Q-64.31 15.64-117.66 15.88L-117.66 15.88Q-126.29 15.88-127.68 17.27L-127.68 17.27Q-128.85 18.91-128.85 22.63L-128.85 22.63Q-128.85 40.81-118.48 50.48Q-108.11 60.15-94.83 60.15Q-81.55 60.15-74.09 56.65L-74.09 56.65Q-73.86 56.65-69.43 53.62Q-65.01 50.59-63.26 50.59Q-61.51 50.59-60.58 51.99Q-59.65 53.39-59.65 54.79L-59.65 54.79Q-59.65 63.64-72.70 69.82Q-85.74 75.99-103.10 75.99Q-120.46 75.99-136.19 62.01Q-151.92 48.03-151.92 24.26Q-151.92 0.50-137.12-14.88Q-122.32-30.26-97.39-30.26L-97.39-30.26Q-79.22-30.26-68.04-19.54L-68.04-19.54Q-56.15-8.36-56.15 7.49L-56.15 7.49Q-56.15 15.64-64.31 15.64ZM-124.89 4.23L-124.89 4.23Q-80.62 4.23-73.63 3.76L-73.63 3.76Q-74.33-5.56-80.73-11.62Q-87.14-17.68-96.93-17.68Q-106.71-17.68-115.22-10.80Q-123.72-3.93-124.89 4.23ZM-27.26 18.67L-27.26-5.79L-27.73-53.32Q-27.73-57.98-27.61-62.29Q-27.49-66.61-27.49-69.87L-27.49-69.87L-27.49-80.82Q-27.49-91.30-25.98-95.03Q-24.46-98.76-16.89-98.76Q-9.32-98.76-7.46-97.71Q-5.59-96.66-5.59-92.93L-5.59-92.93L-5.36-6.96L-5.13 44.30Q-5.13 51.29-0.93 55.49Q3.26 59.68 8.62 59.68Q13.98 59.68 19.46 58.40Q24.93 57.12 26.33 57.12L26.33 57.12Q29.36 57.12 29.36 60.85L29.36 60.85Q29.36 68.77 18.41 72.50L18.41 72.50Q10.72 74.83 1.98 74.83Q-6.76 74.83-12.12 71.80Q-17.47 68.77-20.39 64.34Q-23.30 59.91-24.93 51.76L-24.93 51.76Q-27.26 40.34-27.26 18.67L-27.26 18.67ZM148.65 20.54L148.65 20.54Q148.65 44.54 132.23 60.26Q115.80 75.99 92.85 75.99Q69.90 75.99 54.87 61.54Q39.84 47.10 39.84 22.52Q39.84-2.06 55.80-16.16Q71.76-30.26 99.72-30.26L99.72-30.26Q115.34-30.26 130.71-20.47L130.71-20.47Q138.64-15.11 143.64-4.51Q148.65 6.09 148.65 20.54ZM96.00 58.75Q110.68 58.75 119.65 48.15Q128.62 37.55 128.62 21.93Q128.62 6.32 120.81-3.93Q113.01-14.18 97.98-14.18Q82.95-14.18 72.81-4.86Q62.68 4.46 62.68 21.70Q62.68 38.94 72.00 48.85Q81.32 58.75 96.00 58.75ZM339.25 34.05L339.25 34.05Q342.98 30.32 345.54 25.20L345.54 25.20L348.80 18.67Q349.73 17.27 357.66 1.90L357.66 1.90Q374.20-30.26 377.93-30.26L377.93-30.26Q380.26-30.26 384.33-28.16Q388.41-26.06 388.88-24.43L388.88-24.43Q388.88-23.27 364.99 22.28Q341.11 67.84 339.25 71.56L339.25 71.56Q311.99 128.18 307.33 128.18L307.33 128.18Q303.60 128.18 299.17 126.20Q294.75 124.22 294.28 122.59L294.28 122.59Q294.28 121.19 297.77 113.50L297.77 113.50Q300.34 108.84 305.00 100.69L305.00 100.69Q315.95 81.58 318.16 76.57Q320.38 71.56 322.82 67.49Q325.27 63.41 327.13 59.91Q329.00 56.42 329.00 55.25Q329.00 54.09 323.29 46.63Q317.58 39.18 311.99 31.14Q306.39 23.10 299.64 13.08Q292.88 3.06 291.02 0.27L291.02 0.27L285.66-7.89Q277.97-19.31 277.97-21.99Q277.97-24.67 283.33-27.46Q288.69-30.26 291.25-30.26Q293.81-30.26 298.24-25.71Q302.67-21.17 308.49-12.90Q314.32-4.63 319.21 2.83Q324.10 10.28 330.39 20.30Q336.69 30.32 339.25 34.05Z"/></g>
<g transform="matrix(14.2142 0 0 14.2142 727.2434 481.5686)" id="60554">
<g style="" vector-effect="non-scaling-stroke">
		<g transform="matrix(1 0 0 1 -1.5 5)">
<path style="stroke: none; stroke-width: 1; stroke-dasharray: none; stroke-linecap: butt; stroke-dashoffset: 0; stroke-linejoin: miter; stroke-miterlimit: 4; is-custom-font: none; font-file-url: none; fill: rgb(0,0,0); fill-rule: nonzero; opacity: 1;" transform=" translate(-6.5, -13)" d="M 9 13 c 0 1.105 -1.12 2 -2.5 2 S 4 14.105 4 13 s 1.12 -2 2.5 -2 s 2.5 0.895 2.5 2 z" stroke-linecap="round"/>
</g>
		<g transform="matrix(1 0 0 1 0.5 0)">
<path style="stroke: none; stroke-width: 1; stroke-dasharray: none; stroke-linecap: butt; stroke-dashoffset: 0; stroke-linejoin: miter; stroke-miterlimit: 4; is-custom-font: none; font-file-url: none; fill: rgb(0,0,0); fill-rule: evenodd; opacity: 1;" transform=" translate(-8.5, -8)" d="M 9 3 v 10 H 8 V 3 h 1 z" stroke-linecap="round"/>
</g>
		<g transform="matrix(1 0 0 1 2.5 -4.8897)">
<path style="stroke: none; stroke-width: 1; stroke-dasharray: none; stroke-linecap: butt; stroke-dashoffset: 0; stroke-linejoin: miter; stroke-miterlimit: 4; is-custom-font: none; font-file-url: none; fill: rgb(0,0,0); fill-rule: nonzero; opacity: 1;" transform=" translate(-10.5, -3.1103)" d="M 8 2.82 a 1 1 0 0 1 0.804 -0.98 l 3 -0.6 A 1 1 0 0 1 13 2.22 V 4 L 8 5 V 2.82 z" stroke-linecap="round"/>
</g>
</g>
</g>
</svg>